<?xml version="1.0" encoding="us-ascii" standalone="no"?><svg xmlns="http://www.w3.org/2000/svg" xmlns:xlink="http://www.w3.org/1999/xlink" contentStyleType="text/css" height="859px" preserveAspectRatio="none" style="width:1284px;height:859px;background:#FFFFFF;" version="1.1" viewBox="0 0 1284 859" width="1284px" zoomAndPan="magnify"><defs/><g><ellipse cx="103.5" cy="16" fill="#222222" rx="10" ry="10" style="stroke:#222222;stroke-width:1.0;"/><g id="State1"><rect fill="#F1F1F1" height="94.5" rx="12.5" ry="12.5" style="stroke:#181818;stroke-width:0.5;" width="193" x="7" y="87"/><line style="stroke:#181818;stroke-width:0.5;" x1="7" x2="200" y1="129.5938" y2="129.5938"/><text fill="#000000" font-family="sans-serif" font-size="14" lengthAdjust="spacing" textLength="115" x="46" y="104.9951">InitializationState</text><text fill="#000000" font-family="sans-serif" font-size="14" lengthAdjust="spacing" textLength="4" x="101.5" y="121.292">&#160;</text><text fill="#000000" font-family="sans-serif" font-size="12" lengthAdjust="spacing" textLength="153" x="12" y="145.7324">/enter init() start timer 1</text><text fill="#000000" font-family="sans-serif" font-size="12" lengthAdjust="spacing" textLength="165" x="16" y="159.7012">/enter displayTeamName()</text><text fill="#000000" font-family="sans-serif" font-size="12" lengthAdjust="spacing" textLength="122" x="16" y="173.6699">/leave reset timer 1</text></g><g id="State2"><rect fill="#F1F1F1" height="66.5625" rx="12.5" ry="12.5" style="stroke:#181818;stroke-width:0.5;" width="139" x="236" y="622.45"/><line style="stroke:#181818;stroke-width:0.5;" x1="236" x2="375" y1="665.0437" y2="665.0437"/><text fill="#000000" font-family="sans-serif" font-size="14" lengthAdjust="spacing" textLength="79" x="266" y="640.4451">ReadyState</text><text fill="#000000" font-family="sans-serif" font-size="14" lengthAdjust="spacing" textLength="4" x="303.5" y="656.742">&#160;</text><text fill="#000000" font-family="sans-serif" font-size="12" lengthAdjust="spacing" textLength="119" x="241" y="681.1824">/leave start timer 1</text></g><g id="State3"><rect fill="#F1F1F1" height="66.5625" rx="12.5" ry="12.5" style="stroke:#181818;stroke-width:0.5;" width="128" x="39.5" y="443.97"/><line style="stroke:#181818;stroke-width:0.5;" x1="39.5" x2="167.5" y1="486.5637" y2="486.5637"/><text fill="#000000" font-family="sans-serif" font-size="14" lengthAdjust="spacing" textLength="108" x="49.5" y="461.9651">CalibrationState</text><text fill="#000000" font-family="sans-serif" font-size="14" lengthAdjust="spacing" textLength="4" x="101.5" y="478.262">&#160;</text><text fill="#000000" font-family="sans-serif" font-size="12" lengthAdjust="spacing" textLength="107" x="44.5" y="502.7024">/enter calibrate()</text></g><g id="State4"><rect fill="#F1F1F1" height="80.5313" rx="12.5" ry="12.5" style="stroke:#181818;stroke-width:0.5;" width="222" x="194.5" y="773"/><line style="stroke:#181818;stroke-width:0.5;" x1="194.5" x2="416.5" y1="815.5938" y2="815.5938"/><text fill="#000000" font-family="sans-serif" font-size="14" lengthAdjust="spacing" textLength="130" x="240.5" y="790.9951">ParameterSetState</text><text fill="#000000" font-family="sans-serif" font-size="14" lengthAdjust="spacing" textLength="4" x="303.5" y="807.292">&#160;</text><text fill="#000000" font-family="sans-serif" font-size="12" lengthAdjust="spacing" textLength="159" x="199.5" y="831.7324">/enter setParameterSet()</text><text fill="#000000" font-family="sans-serif" font-size="12" lengthAdjust="spacing" textLength="198" x="203.5" y="845.7012">/process displayParameterSet()</text></g><g id="State5"><rect fill="#F1F1F1" height="80.5313" rx="12.5" ry="12.5" style="stroke:#181818;stroke-width:0.5;" width="254" x="802.5" y="615.47"/><line style="stroke:#181818;stroke-width:0.5;" x1="802.5" x2="1056.5" y1="658.0638" y2="658.0638"/><text fill="#000000" font-family="sans-serif" font-size="14" lengthAdjust="spacing" textLength="161" x="849" y="633.4651">SearchingStartlineState</text><text fill="#000000" font-family="sans-serif" font-size="14" lengthAdjust="spacing" textLength="4" x="927.5" y="649.762">&#160;</text><text fill="#000000" font-family="sans-serif" font-size="12" lengthAdjust="spacing" textLength="119" x="807.5" y="674.2024">/enter reset timer1</text><text fill="#000000" font-family="sans-serif" font-size="12" lengthAdjust="spacing" textLength="230" x="811.5" y="688.1712">/enter  start dual drive motor system</text></g><g id="State6"><rect fill="#F1F1F1" height="80.5313" rx="12.5" ry="12.5" style="stroke:#181818;stroke-width:0.5;" width="226" x="659.5" y="258.5"/><line style="stroke:#181818;stroke-width:0.5;" x1="659.5" x2="885.5" y1="301.0938" y2="301.0938"/><text fill="#000000" font-family="sans-serif" font-size="14" lengthAdjust="spacing" textLength="95" x="725" y="276.4951">DriveLapState</text><text fill="#000000" font-family="sans-serif" font-size="14" lengthAdjust="spacing" textLength="4" x="770.5" y="292.792">&#160;</text><text fill="#000000" font-family="sans-serif" font-size="12" lengthAdjust="spacing" textLength="120" x="664.5" y="317.2324">/enter start timer 2</text><text fill="#000000" font-family="sans-serif" font-size="12" lengthAdjust="spacing" textLength="202" x="668.5" y="331.2012">/process findTracklineAndDrive()</text></g><g id="State7"><rect fill="#F1F1F1" height="122.4375" rx="12.5" ry="12.5" style="stroke:#181818;stroke-width:0.5;" width="261" x="373" y="416.03"/><line style="stroke:#181818;stroke-width:0.5;" x1="373" x2="634" y1="458.6238" y2="458.6238"/><text fill="#000000" font-family="sans-serif" font-size="14" lengthAdjust="spacing" textLength="118" x="444.5" y="434.0251">LapFinishedState</text><text fill="#000000" font-family="sans-serif" font-size="14" lengthAdjust="spacing" textLength="4" x="501.5" y="450.322">&#160;</text><text fill="#000000" font-family="sans-serif" font-size="12" lengthAdjust="spacing" textLength="118" x="378" y="474.7624">/enter stop timer 2</text><text fill="#000000" font-family="sans-serif" font-size="12" lengthAdjust="spacing" textLength="150" x="382" y="488.7312">/enter  displayLapTime()</text><text fill="#000000" font-family="sans-serif" font-size="12" lengthAdjust="spacing" textLength="233" x="382" y="502.6999">/enter  reset dual drive motor system</text><text fill="#000000" font-family="sans-serif" font-size="12" lengthAdjust="spacing" textLength="113" x="382" y="516.6687">/enter  playBeep()</text><text fill="#000000" font-family="sans-serif" font-size="12" lengthAdjust="spacing" textLength="122" x="382" y="530.6374">/leave reset timer 2</text></g><g id="State8"><rect fill="#F1F1F1" height="94.5" rx="12.5" ry="12.5" style="stroke:#181818;stroke-width:0.5;" width="175" x="669" y="430"/><line style="stroke:#181818;stroke-width:0.5;" x1="669" x2="844" y1="472.5938" y2="472.5938"/><text fill="#000000" font-family="sans-serif" font-size="14" lengthAdjust="spacing" textLength="122" x="695.5" y="447.9951">SearchTrackState</text><text fill="#000000" font-family="sans-serif" font-size="14" lengthAdjust="spacing" textLength="4" x="754.5" y="464.292">&#160;</text><text fill="#000000" font-family="sans-serif" font-size="12" lengthAdjust="spacing" textLength="120" x="674" y="488.7324">/enter start timer 1</text><text fill="#000000" font-family="sans-serif" font-size="12" lengthAdjust="spacing" textLength="147" x="678" y="502.7012">/process findTrackline()</text><text fill="#000000" font-family="sans-serif" font-size="12" lengthAdjust="spacing" textLength="122" x="678" y="516.6699">/leave reset timer 1</text></g><g id="State9"><rect fill="#F1F1F1" height="94.5" rx="12.5" ry="12.5" style="stroke:#181818;stroke-width:0.5;" width="248" x="740.5" y="87"/><line style="stroke:#181818;stroke-width:0.5;" x1="740.5" x2="988.5" y1="129.5938" y2="129.5938"/><text fill="#000000" font-family="sans-serif" font-size="14" lengthAdjust="spacing" textLength="69" x="830" y="104.9951">ErrorState</text><text fill="#000000" font-family="sans-serif" font-size="14" lengthAdjust="spacing" textLength="4" x="862.5" y="121.292">&#160;</text><text fill="#000000" font-family="sans-serif" font-size="12" lengthAdjust="spacing" textLength="224" x="745.5" y="145.7324">/enter stop dual drive motor system</text><text fill="#000000" font-family="sans-serif" font-size="12" lengthAdjust="spacing" textLength="116" x="749.5" y="159.7012">/enter  playAlarm()</text><text fill="#000000" font-family="sans-serif" font-size="12" lengthAdjust="spacing" textLength="130" x="749.5" y="173.6699">/enter  displayError()</text></g><g id="State10"><rect fill="#F1F1F1" height="66.5625" rx="12.5" ry="12.5" style="stroke:#181818;stroke-width:0.5;" width="142" x="522.5" y="622.45"/><line style="stroke:#181818;stroke-width:0.5;" x1="522.5" x2="664.5" y1="665.0437" y2="665.0437"/><text fill="#000000" font-family="sans-serif" font-size="14" lengthAdjust="spacing" textLength="104" x="541.5" y="640.4451">ButtonPressed</text><text fill="#000000" font-family="sans-serif" font-size="14" lengthAdjust="spacing" textLength="4" x="591.5" y="656.742">&#160;</text><text fill="#000000" font-family="sans-serif" font-size="12" lengthAdjust="spacing" textLength="122" x="527.5" y="681.1824">/leave reset timer 1</text></g><!--link *start* to State1--><g id="link_*start*_State1"><path d="M103.5,26.12 C103.5,39.18 103.5,58.12 103.5,80.66 " fill="none" id="*start*-to-State1" style="stroke:#181818;stroke-width:1.0;"/><polygon fill="#181818" points="103.5,86.66,107.5,77.66,103.5,81.66,99.5,77.66,103.5,86.66" style="stroke:#181818;stroke-width:1.0;"/></g><!--link State1 to State3--><g id="link_State1_State3"><path d="M103.5,181.95 C103.5,252.17 103.5,377.19 103.5,437.87 " fill="none" id="State1-to-State3" style="stroke:#181818;stroke-width:1.0;"/><polygon fill="#181818" points="103.5,443.87,107.5,434.87,103.5,438.87,99.5,434.87,103.5,443.87" style="stroke:#181818;stroke-width:1.0;"/><text fill="#000000" font-family="sans-serif" font-size="13" lengthAdjust="spacing" textLength="101" x="104.5" y="303.3269">[timer 1 &gt;= 2s]</text></g><!--reverse link State3 to State2--><g id="link_State3_State2"><path d="M59.8325,514.7978 C37.7725,536.8078 22.29,561.89 40.5,585.47 C64.22,616.19 165.45,635.9 235.69,646.14 " fill="none" id="State3-backto-State2" style="stroke:#181818;stroke-width:1.0;"/><polygon fill="#181818" points="64.08,510.56,54.8836,514.0851,60.5405,514.0915,60.534,519.7484,64.08,510.56" style="stroke:#181818;stroke-width:1.0;"/><text fill="#000000" font-family="sans-serif" font-size="13" lengthAdjust="spacing" textLength="107" x="41.5" y="581.5369">ButtonC pressed</text></g><!--link State3 to State2--><g id="link_State3_State2"><path d="M124.95,510.83 C140.95,533.52 164.31,563.53 189.5,585.47 C205.15,599.1 218.6851,608.5364 236.4451,619.0364 " fill="none" id="State3-to-State2" style="stroke:#181818;stroke-width:1.0;"/><polygon fill="#181818" points="241.61,622.09,235.8984,614.0664,237.3059,619.5454,231.827,620.9529,241.61,622.09" style="stroke:#181818;stroke-width:1.0;"/><text fill="#000000" font-family="sans-serif" font-size="13" lengthAdjust="spacing" textLength="102" x="190.5" y="581.5369">calibration done</text></g><!--link State2 to State4--><g id="link_State2_State4"><path d="M375.32,688.19 C389.81,698.12 403.18,710.63 411.5,726 C421.27,744.05 417.0163,756.0032 400.9063,768.8832 " fill="none" id="State2-to-State4" style="stroke:#181818;stroke-width:1.0;"/><polygon fill="#181818" points="396.22,772.63,405.7474,770.1341,400.1253,769.5077,400.7517,763.8856,396.22,772.63" style="stroke:#181818;stroke-width:1.0;"/><text fill="#000000" font-family="sans-serif" font-size="13" lengthAdjust="spacing" textLength="107" x="417.5" y="739.0669">ButtonB pressed</text></g><!--reverse link State2 to State4--><g id="link_State2_State4"><path d="M229.7727,671.8963 C181.3327,684.8163 135.2,706.27 158.5,743 C167.42,757.05 180.03,768.31 194.16,777.31 " fill="none" id="State2-backto-State4" style="stroke:#181818;stroke-width:1.0;"/><polygon fill="#181818" points="235.57,670.35,225.8432,668.8045,230.7389,671.6386,227.9049,676.5343,235.57,670.35" style="stroke:#181818;stroke-width:1.0;"/><text fill="#000000" font-family="sans-serif" font-size="13" lengthAdjust="spacing" textLength="247" x="159.5" y="739.0669">ButtonB pressed or configuration done</text></g><!--link State2 to State10--><g id="link_State2_State10"><path d="M375.22,655.73 C419.75,655.73 471.33,655.73 516.17,655.73 " fill="none" id="State2-to-State10" style="stroke:#181818;stroke-width:1.0;"/><polygon fill="#181818" points="522.17,655.73,513.17,651.73,517.17,655.73,513.17,659.73,522.17,655.73" style="stroke:#181818;stroke-width:1.0;"/><text fill="#000000" font-family="sans-serif" font-size="13" lengthAdjust="spacing" textLength="111" x="393.25" y="648.7969">ButtonA released</text></g><!--link State10 to State5--><g id="link_State10_State5"><path d="M664.76,655.73 C704.63,655.73 749.54,655.73 796.04,655.73 " fill="none" id="State10-to-State5" style="stroke:#181818;stroke-width:1.0;"/><polygon fill="#181818" points="802.04,655.73,793.04,651.73,797.04,655.73,793.04,659.73,802.04,655.73" style="stroke:#181818;stroke-width:1.0;"/><text fill="#000000" font-family="sans-serif" font-size="13" lengthAdjust="spacing" textLength="101" x="683" y="648.7969">[timer 1 &gt;= 3s]</text></g><!--link State5 to State6--><g id="link_State5_State6"><path d="M930.63,615.24 C930.43,556.69 922.74,445.56 872.5,369.03 C865.14,357.82 859.9579,351.6673 849.2879,343.0973 " fill="none" id="State5-to-State6" style="stroke:#181818;stroke-width:1.0;"/><polygon fill="#181818" points="844.61,339.34,849.1221,348.0945,848.5083,342.471,854.1317,341.8573,844.61,339.34" style="stroke:#181818;stroke-width:1.0;"/><text fill="#000000" font-family="sans-serif" font-size="13" lengthAdjust="spacing" textLength="259" x="926.5" y="481.8169">Startline found /playBeep() /start timer 2</text></g><!--link State6 to State8--><g id="link_State6_State8"><path d="M768.91,339.37 C766.49,366.1 763.8223,395.5046 761.2723,423.6046 " fill="none" id="State6-to-State8" style="stroke:#181818;stroke-width:1.0;"/><polygon fill="#181818" points="760.73,429.58,765.527,420.9783,761.1819,424.6005,757.5598,420.2553,760.73,429.58" style="stroke:#181818;stroke-width:1.0;"/><text fill="#000000" font-family="sans-serif" font-size="13" lengthAdjust="spacing" textLength="97" x="766.5" y="382.0969">not found track</text></g><!--reverse link State6 to State8--><g id="link_State6_State8"><path d="M701.0959,343.5631 C691.7959,352.0831 687.99,357.89 682.5,369.03 C672.21,389.93 682.18,411.37 697.77,429.53 " fill="none" id="State6-backto-State8" style="stroke:#181818;stroke-width:1.0;"/><polygon fill="#181818" points="705.52,339.51,696.1818,342.6402,701.8332,342.8875,701.5859,348.539,705.52,339.51" style="stroke:#181818;stroke-width:1.0;"/><text fill="#000000" font-family="sans-serif" font-size="13" lengthAdjust="spacing" textLength="72" x="683.5" y="382.0969">found track</text></g><!--link State6 to State7--><g id="link_State6_State7"><path d="M659.09,325.01 C629.23,335.31 598.43,349.54 573.5,369.03 C557.56,381.49 547.3198,393.5708 536.5998,410.5008 " fill="none" id="State6-to-State7" style="stroke:#181818;stroke-width:1.0;"/><polygon fill="#181818" points="533.39,415.57,541.5842,410.106,536.0648,411.3456,534.8252,405.8263,533.39,415.57" style="stroke:#181818;stroke-width:1.0;"/><text fill="#000000" font-family="sans-serif" font-size="13" lengthAdjust="spacing" textLength="94" x="574.5" y="382.0969">Startline found</text></g><!--reverse link State9 to State6--><g id="link_State9_State6"><path d="M832.8054,186.9364 C826.9554,196.6964 824,201.82 818.5,211.5 C809.95,226.55 800.91,243.31 793.13,258.01 " fill="none" id="State9-backto-State6" style="stroke:#181818;stroke-width:1.0;"/><polygon fill="#181818" points="835.89,181.79,827.8321,187.4531,833.3195,186.0786,834.6939,191.566,835.89,181.79" style="stroke:#181818;stroke-width:1.0;"/><text fill="#000000" font-family="sans-serif" font-size="13" lengthAdjust="spacing" textLength="109" x="819.5" y="224.5669">[timer 2 &gt;= 20s]</text></g><!--link State7 to State2--><g id="link_State7_State2"><path d="M435.64,538.74 C404.29,566.68 372.7887,594.7573 346.6187,618.0873 " fill="none" id="State7-to-State2" style="stroke:#181818;stroke-width:1.0;"/><polygon fill="#181818" points="342.14,622.08,351.5198,619.0768,345.8722,618.7528,346.1963,613.1052,342.14,622.08" style="stroke:#181818;stroke-width:1.0;"/><text fill="#000000" font-family="sans-serif" font-size="13" lengthAdjust="spacing" textLength="107" x="400.5" y="581.5369">ButtonA pressed</text></g><!--reverse link State9 to State8--><g id="link_State9_State8"><path d="M919.513,186.2952 C926.753,195.4452 929.39,200.84 933.5,211.5 C946.89,246.25 951.73,232.19 903.5,339.03 C887.2,375.15 856.45,406.21 827.28,429.6 " fill="none" id="State9-backto-State8" style="stroke:#181818;stroke-width:1.0;"/><polygon fill="#181818" points="915.79,181.59,918.2377,191.1298,918.8925,185.511,924.5114,186.1658,915.79,181.59" style="stroke:#181818;stroke-width:1.0;"/><text fill="#000000" font-family="sans-serif" font-size="13" lengthAdjust="spacing" textLength="101" x="938.5" y="303.3269">[timer 1 &gt;= 5s]</text></g><!--link State5 to State9--><g id="link_State5_State9"><path d="M1056.81,630.7 C1108.67,613.97 1163.59,585.79 1194.5,538.47 C1224.26,492.91 1214.37,466.69 1194.5,416.03 C1152.14,308.01 1046.2375,231.1828 964.5975,184.8228 " fill="none" id="State5-to-State9" style="stroke:#181818;stroke-width:1.0;"/><polygon fill="#181818" points="959.38,181.86,965.231,189.7825,963.7279,184.329,969.1814,182.8259,959.38,181.86" style="stroke:#181818;stroke-width:1.0;"/><text fill="#000000" font-family="sans-serif" font-size="13" lengthAdjust="spacing" textLength="97" x="1179.5" y="382.0969">[timer 1 &gt;=8s]</text></g><!--link State9 to State2--><g id="link_State9_State2"><path d="M740.17,170.41 C622.48,210.32 450.13,287.22 355.5,416.03 C309.88,478.13 303.8099,566.5801 304.1399,616.0001 " fill="none" id="State9-to-State2" style="stroke:#181818;stroke-width:1.0;"/><polygon fill="#181818" points="304.18,622,308.1198,612.9735,304.1466,617.0001,300.12,613.0269,304.18,622" style="stroke:#181818;stroke-width:1.0;"/><text fill="#000000" font-family="sans-serif" font-size="13" lengthAdjust="spacing" textLength="107" x="395.5" y="382.0969">ButtonA pressed</text></g><!--SRC=[ZLNHRjem57tFLrXzQYj5XL0AL1iIT9iqQPggmblR1pU-WDN4Zcnd4_lwtJXEOXEozGcLU-uvvvxhIv-lNqaSByd6K0FZADBLf_kBK4qklWjkECtu7sgu5BRm8YxkoGq80ufmB5zU4MnJXXYUurTZyYAQCkEwoEXn2pJ_IND0P5NBWFu2ea13s-CB9rRu2IWxUdfrKoZaTqrirmDQVLFdlQQkXZRynblR-4WL6aJO1aol4utwTJT6eMGAMZT3XWXVOMeLDa1LUk1YlwbcoBY0deuNYP-YcvgLD2DCSOmXbqQYhQCsaFjATrRfIuNvGOl-75vwIJ33ZWksLJHzhtoj1BCKuHGpousqtt3f-W3i3Bqi0dPdtmM4hLlUFW9NgqSU6Cq7LWnhW6Bm3IM-sRaNkPthdrcCXxFus9DTMBclIabrFfKF3hZAgCh3W5nubZjSo7XaLTUbCL8yeZSDpB-Lq6r48dVMCPE_HNlq4t9FdfiObfz9ebyZTuPnMVYeMkY15BLKYx9qo-QO6jowXrDyVp3jRyseHQxGAJfkeLWAiTCJYvFEugTQlJEPTZy0X4a17J23dOa7NHBSIIh5ZkzBlpjo1a93TzZVNZ7PoL8mV3xT0xq93YroFK5GSwGGqhXcKpsto1Mys2kX7kA4QTOtq-8wfaMNOMBNF6f2d8LqYRUNO8Fp0Jgxacd3Dkt-dPnWvWrayL_1lm00]--></g></svg>